<?xml version="1.0" encoding="UTF-8"?>
<svg xmlns="http://www.w3.org/2000/svg" id="Layer_1" data-name="Layer 1" viewBox="0 0 99 50">
  <defs>
    <style>.cls-1{fill:#f39b1f;}.cls-2{fill:#636466;}.cls-3{fill:#2d62ae;}</style>
  </defs>
  <polygon class="cls-1" points="34.95 17.51 32.36 12.53 27.92 15.59 32.63 25.9 50.86 7.88 48.85 3.87 34.95 17.51"></polygon>
  <path class="cls-2" d="M19.41,40.52l.35.84H18.39v3a1.17,1.17,0,0,0,.2.71.71.71,0,0,0,.6.26,1.57,1.57,0,0,0,.55-.13L20,46a2.56,2.56,0,0,1-.45.16,1.92,1.92,0,0,1-.5.08,1.81,1.81,0,0,1-1.32-.46,1.71,1.71,0,0,1-.48-1.3V41.36H16.5l0-.84h.8V39.11l1.11-.57v2Z"></path>
  <path class="cls-2" d="M25.75,43.5h-4a2.12,2.12,0,0,0,.53,1.3,1.8,1.8,0,0,0,1.36.48,2.51,2.51,0,0,0,.77-.11c.22-.08.53-.21.92-.39l.35.81a3.91,3.91,0,0,1-2,.61,3,3,0,0,1-2.26-.8,2.94,2.94,0,0,1-.78-2.15,3.45,3.45,0,0,1,.32-1.54,2.42,2.42,0,0,1,.93-1,2.67,2.67,0,0,1,1.43-.37,2.17,2.17,0,0,1,1.84.81,3.39,3.39,0,0,1,.62,2.09Zm-4-.75h2.88q-.23-1.5-1.41-1.5a1.36,1.36,0,0,0-1,.39,1.88,1.88,0,0,0-.45,1.11"></path>
  <path class="cls-2" d="M30.81,44.88l.33.8a2.9,2.9,0,0,1-.93.38,4,4,0,0,1-1,.15,2.82,2.82,0,0,1-1.47-.37,2.46,2.46,0,0,1-1-1,3.47,3.47,0,0,1-.34-1.55,3.33,3.33,0,0,1,.35-1.54,2.43,2.43,0,0,1,1-1,2.93,2.93,0,0,1,1.5-.37,4,4,0,0,1,1,.15,3.42,3.42,0,0,1,.93.39l-.33.79a6.81,6.81,0,0,0-.8-.29,3,3,0,0,0-.77-.09,1.47,1.47,0,0,0-1.22.56,2.2,2.2,0,0,0-.47,1.43A2.25,2.25,0,0,0,28,44.7a1.44,1.44,0,0,0,1.21.56,3.4,3.4,0,0,0,.83-.09,4.23,4.23,0,0,0,.75-.29"></path>
  <path class="cls-2" d="M36.75,40.83a2.4,2.4,0,0,1,.45,1.53v3.7H36.09v-3.6a1.78,1.78,0,0,0-.2-.93.81.81,0,0,0-.73-.32,1.74,1.74,0,0,0-.85.25,5.27,5.27,0,0,0-.92.64v4H32.28V38l1.11-.57v3.63a3.71,3.71,0,0,1,1-.59,2.58,2.58,0,0,1,1-.22,1.61,1.61,0,0,1,1.36.57"></path>
  <path class="cls-2" d="M39.66,46.06H38.54V40.45h.78l.2.74a4.19,4.19,0,0,1,1-.67,2.69,2.69,0,0,1,1.12-.26,1.62,1.62,0,0,1,1.36.57,2.4,2.4,0,0,1,.45,1.53v3.7H42.35v-3.6a1.69,1.69,0,0,0-.2-.93.78.78,0,0,0-.72-.32,1.78,1.78,0,0,0-.86.25,5.21,5.21,0,0,0-.91.64Z"></path>
  <path class="cls-2" d="M49.73,44.8a2.43,2.43,0,0,1-1,1,2.93,2.93,0,0,1-1.5.37,2.85,2.85,0,0,1-1.48-.37,2.36,2.36,0,0,1-1-1,3.63,3.63,0,0,1,0-3.09,2.46,2.46,0,0,1,1-1,2.93,2.93,0,0,1,1.5-.37,2.82,2.82,0,0,1,1.47.37,2.46,2.46,0,0,1,1,1,3.47,3.47,0,0,1,.34,1.55,3.33,3.33,0,0,1-.35,1.54m-1.26-.1a2.52,2.52,0,0,0,0-2.89,1.44,1.44,0,0,0-1.21-.56,1.47,1.47,0,0,0-1.22.56,2.2,2.2,0,0,0-.47,1.43A2.25,2.25,0,0,0,46,44.7a1.42,1.42,0,0,0,1.21.56,1.5,1.5,0,0,0,1.22-.56"></path>
  <polygon class="cls-2" points="51.24 46.06 51.24 38.02 52.35 37.44 52.35 46.06 51.24 46.06"></polygon>
  <path class="cls-2" d="M58.77,44.8a2.43,2.43,0,0,1-1,1,2.88,2.88,0,0,1-1.5.37,2.82,2.82,0,0,1-1.47-.37,2.38,2.38,0,0,1-1-1,3.47,3.47,0,0,1-.33-1.55,3.32,3.32,0,0,1,.34-1.54,2.43,2.43,0,0,1,1-1,3.17,3.17,0,0,1,3,0,2.44,2.44,0,0,1,1,1,3.34,3.34,0,0,1,.34,1.55,3.21,3.21,0,0,1-.35,1.54m-1.25-.1a2.52,2.52,0,0,0,0-2.89,1.61,1.61,0,0,0-2.44,0,2.25,2.25,0,0,0-.47,1.43,2.31,2.31,0,0,0,.44,1.46,1.44,1.44,0,0,0,1.22.56,1.51,1.51,0,0,0,1.22-.56"></path>
  <path class="cls-2" d="M65,40.45v6.11a2,2,0,0,1-.32,1.12,2.13,2.13,0,0,1-.92.77,3.54,3.54,0,0,1-1.45.28,4.57,4.57,0,0,1-1-.16,3,3,0,0,1-1-.4l.34-.8q.57.26.87.36a2.65,2.65,0,0,0,.75.09,1.85,1.85,0,0,0,1.15-.33,1.08,1.08,0,0,0,.44-.94v-.73a3.07,3.07,0,0,1-.64.29,2,2,0,0,1-.58.1,2.87,2.87,0,0,1-1.49-.37,2.44,2.44,0,0,1-1-1,3.61,3.61,0,0,1-.33-1.59,3.24,3.24,0,0,1,.34-1.52,2.52,2.52,0,0,1,1-1,2.91,2.91,0,0,1,1.47-.36,2.39,2.39,0,0,1,.72.13,2.8,2.8,0,0,1,.76.41l.22-.39Zm-1.68,4.7a1.86,1.86,0,0,0,.55-.36v-3.1a1.56,1.56,0,0,0-.56-.34,2,2,0,0,0-.66-.1,1.46,1.46,0,0,0-1.22.55A2.17,2.17,0,0,0,61,43.2a2.41,2.41,0,0,0,.44,1.5,1.46,1.46,0,0,0,1.22.56,1.75,1.75,0,0,0,.67-.11"></path>
  <path class="cls-2" d="M67,39.44a.66.66,0,0,1-.48-.2.66.66,0,0,1-.2-.5.68.68,0,0,1,.68-.69.72.72,0,0,1,.5.2.69.69,0,0,1,0,1,.72.72,0,0,1-.5.2m-.54,1h1.12v5.61H66.42Z"></path>
  <path class="cls-2" d="M73.72,43.5h-4a2.06,2.06,0,0,0,.53,1.3,1.79,1.79,0,0,0,1.36.48,2.55,2.55,0,0,0,.77-.11c.22-.08.53-.21.92-.39l.35.81a3.91,3.91,0,0,1-2,.61,3,3,0,0,1-2.26-.8,3,3,0,0,1-.79-2.15,3.45,3.45,0,0,1,.33-1.54,2.3,2.3,0,0,1,.93-1,2.65,2.65,0,0,1,1.43-.37,2.19,2.19,0,0,1,1.84.81,3.39,3.39,0,0,1,.61,2.09Zm-4-.75h2.89c-.15-1-.62-1.5-1.42-1.5a1.34,1.34,0,0,0-1,.39,2,2,0,0,0-.46,1.11"></path>
  <path class="cls-2" d="M74.47,45.7l.34-.77a3.54,3.54,0,0,0,1.51.38,1.71,1.71,0,0,0,.88-.2.58.58,0,0,0,.33-.52c0-.38-.41-.71-1.25-1-1.22-.4-1.84-1-1.84-1.69a1.41,1.41,0,0,1,.58-1.2,2.5,2.5,0,0,1,1.55-.43,3.56,3.56,0,0,1,.94.15,2.81,2.81,0,0,1,.87.38l-.35.75a5,5,0,0,0-.74-.28,2.45,2.45,0,0,0-.74-.1,1.25,1.25,0,0,0-.72.2.62.62,0,0,0-.29.51.57.57,0,0,0,.31.42,3.61,3.61,0,0,0,.85.39c1.27.45,1.9,1.06,1.9,1.81A1.45,1.45,0,0,1,78,45.77a2.74,2.74,0,0,1-1.69.44,3.83,3.83,0,0,1-1-.14,2.4,2.4,0,0,1-.88-.37"></path>
  <polygon class="cls-2" points="82.42 46.06 82.42 38.02 83.53 37.44 83.53 46.06 82.42 46.06"></polygon>
  <path class="cls-2" d="M87.45,40.52l.34.84H86.43v3a1.17,1.17,0,0,0,.19.71.74.74,0,0,0,.61.26,1.48,1.48,0,0,0,.54-.13l.29.85a2.3,2.3,0,0,1-.45.16,1.86,1.86,0,0,1-.5.08,1.81,1.81,0,0,1-1.31-.46,1.71,1.71,0,0,1-.48-1.3V41.36h-.79v-.84h.8V39.11l1.11-.57v2Z"></path>
  <path class="cls-2" d="M93.78,37.44v8.62h-.64l-.22-.43a2.42,2.42,0,0,1-.77.43,2.2,2.2,0,0,1-.72.15,2.87,2.87,0,0,1-1.49-.37,2.36,2.36,0,0,1-1-1,3.48,3.48,0,0,1-.34-1.59A3.24,3.24,0,0,1,89,41.69a2.5,2.5,0,0,1,1-1,3,3,0,0,1,1.47-.36,2.28,2.28,0,0,1,.58.09,3.18,3.18,0,0,1,.64.26V38ZM90.21,44.7a1.47,1.47,0,0,0,1.22.56,1.71,1.71,0,0,0,.67-.11,2,2,0,0,0,.56-.36v-3.1a1.75,1.75,0,0,0-.56-.34,2,2,0,0,0-.67-.1,1.47,1.47,0,0,0-1.22.55,2.17,2.17,0,0,0-.44,1.4,2.41,2.41,0,0,0,.44,1.5"></path>
  <path class="cls-2" d="M95.65,46.06a.67.67,0,0,1-.51-.2.7.7,0,0,1,.51-1.19.63.63,0,0,1,.48.21.7.7,0,0,1,0,1,.62.62,0,0,1-.48.2"></path>
  <path class="cls-3" d="M93.87,28.79a1.76,1.76,0,0,1,.89.28,1.78,1.78,0,0,1,.65.71,1.91,1.91,0,0,1,.23.95,1.94,1.94,0,0,1-.28.91,1.77,1.77,0,0,1-.72.66,1.83,1.83,0,0,1-.94.22,1.94,1.94,0,0,1-.9-.28,1.91,1.91,0,0,1-.87-1.65,1.82,1.82,0,0,1,.27-.91,2,2,0,0,1,1.67-.89m1.32,2.75a1.64,1.64,0,0,0,0-1.66,1.72,1.72,0,0,0-.58-.64,1.64,1.64,0,0,0-.8-.25,1.72,1.72,0,0,0-1.49.79,1.57,1.57,0,0,0-.25.81,1.7,1.7,0,0,0,.78,1.48,1.66,1.66,0,0,0,1.65.06,1.59,1.59,0,0,0,.64-.59m-.67-1.21a.66.66,0,0,1-.19.38l.79.44-.25.13-.73-.41-.11.06-.48.26.33.62-.24.12-1-1.87.72-.38a.94.94,0,0,1,.63-.12.71.71,0,0,1,.52.77m-.29.09a.39.39,0,0,0,0-.39.41.41,0,0,0-.3-.23.63.63,0,0,0-.44.09l-.47.25.45.84.47-.25a.64.64,0,0,0,.32-.31"></path>
  <path class="cls-3" d="M87.33,2.7a2.6,2.6,0,0,0-2.82,0L78.1,6.11l.64,1c1-.49,1.94-1,2.92-.22s.75,2.83.75,4.28V32.87l5.94-3.09v-24a3.89,3.89,0,0,0-1-3.11"></path>
  <path class="cls-3" d="M70.27,27.34a7.1,7.1,0,0,1-3.74-5.5,5.33,5.33,0,0,1,2.16-5.05,3.61,3.61,0,0,1,4-.3,2.61,2.61,0,0,1,.37,4,19.57,19.57,0,0,1-3.61,2.25l.83,1.54s4.72-2.34,6.67-3.65c2.35-1.58,2.63-3.92,1.78-5.49-.93-1.72-3.29-3-7.31-2.49-4.55.63-10,4.25-10.11,10.41a9.32,9.32,0,0,0,4.28,8.07,9.09,9.09,0,0,0,4.92,1.36l8.87-4.59-.51-1.14c-3.42,1.65-6.43,1.78-8.58.58"></path>
  <path class="cls-3" d="M51.84,16.59a5.7,5.7,0,0,1,3.1-.78c.9.12,1.14.66,2.09,2.1L61.18,14c-1-.84-3.23-1.94-7.25-1.38-4.55.63-10,4.25-10.12,10.41A9.24,9.24,0,0,0,53,32.52c1-.5,7.13-3.69,7.13-3.69l-.68-1.29a8.69,8.69,0,0,1-6.93-.25,6.18,6.18,0,0,1-3.5-5.45,5.85,5.85,0,0,1,2.79-5.25"></path>
  <polygon class="cls-3" points="33.53 27.95 35.68 32.87 41.4 29.95 38.06 23.51 33.53 27.95"></polygon>
  <path class="cls-3" d="M29.3,23.64a19.39,19.39,0,0,1-10.61,2.49,10.41,10.41,0,0,1-9.51-9.91,8.83,8.83,0,0,1,5.45-9.14c3.79-1.49,6.21,0,7.08,2.07S22,13,19.94,14.61a42.52,42.52,0,0,1-6.62,3.84c.25.43,1.18,2.08,1.18,2.08s6.83-3.35,10.23-5.61,4.34-5,3.49-7.66-4.15-5-8.33-4.95A17.59,17.59,0,0,0,8.1,6.82a15.29,15.29,0,0,0-5.24,12A13.86,13.86,0,0,0,10,30.67c3.48,2,8.86,2.45,13.5.76a28.32,28.32,0,0,0,7.44-4.3Z"></path>
</svg>
